HIERARCHY
ROOT hip
{
	OFFSET 0.000000 0.000000 0.000000
	CHANNELS 6 Xposition Yposition Zposition Xrotation Zrotation Yrotation 
	JOINT abdomen
	{
		OFFSET 0.000000 3.422050 0.000000
		CHANNELS 3 Xrotation Zrotation Yrotation 
		JOINT chest
		{
			OFFSET 0.000000 8.486693 -0.684411
			CHANNELS 3 Xrotation Zrotation Yrotation 
			JOINT neck
			{
				OFFSET 0.000000 10.266162 -0.273764
				CHANNELS 3 Xrotation Zrotation Yrotation 
				JOINT head
				{
					OFFSET 0.000000 3.148285 0.000000
					CHANNELS 3 Xrotation Zrotation Yrotation 
					End Site
					{
						OFFSET 0.000000 3.148289 0.000000
					}
				}
			}
			JOINT lCollar
			{
				OFFSET 3.422053 6.707223 -0.821293
				CHANNELS 3 Yrotation Zrotation Xrotation 
				JOINT lShldr
				{
					OFFSET 3.285171 0.000000 0.000000
					CHANNELS 3 Zrotation Yrotation Xrotation 
					JOINT lForeArm
					{
						OFFSET 10.129278 0.000000 0.000000
						CHANNELS 3 Yrotation Zrotation Xrotation 
						JOINT lHand
						{
							OFFSET 8.486692 0.000000 0.000000
							CHANNELS 3 Zrotation Yrotation Xrotation 
							End Site
							{
								OFFSET 4.106464 0.000000 0.000000
							}
						}
					}
				}
			}
			JOINT rCollar
			{
				OFFSET -3.558935 6.707223 -0.821293
				CHANNELS 3 Yrotation Zrotation Xrotation 
				JOINT rShldr
				{
					OFFSET -3.148289 0.000000 0.000000
					CHANNELS 3 Zrotation Yrotation Xrotation 
					JOINT rForeArm
					{
						OFFSET -10.266159 0.000000 0.000000
						CHANNELS 3 Yrotation Zrotation Xrotation 
						JOINT rHand
						{
							OFFSET -8.349810 0.000000 0.000000
							CHANNELS 3 Zrotation Yrotation Xrotation 
							End Site
							{
								OFFSET -4.106464 0.000000 0.000000
							}
						}
					}
				}
			}
		}
	}
	JOINT lThigh
	{
		OFFSET 5.338403 -1.642589 1.368821
		CHANNELS 3 Xrotation Zrotation Yrotation 
		JOINT lShin
		{
			OFFSET -2.053232 -20.121670 0.000000
			CHANNELS 3 Xrotation Zrotation Yrotation 
			JOINT lFoot
			{
				OFFSET 0.000000 -19.300380 -1.231939
				CHANNELS 3 Xrotation Yrotation Zrotation 
				End Site
				{
					OFFSET 0.000000 -2.463878 4.653993
				}
			}
		}
	}
	JOINT rThigh
	{
		OFFSET -5.338403 -1.642589 1.368821
		CHANNELS 3 Xrotation Zrotation Yrotation 
		JOINT rShin
		{
			OFFSET 2.053232 -20.121670 0.000000
			CHANNELS 3 Xrotation Zrotation Yrotation 
			JOINT rFoot
			{
				OFFSET 0.000000 -19.300380 -1.231939
				CHANNELS 3 Xrotation Yrotation Zrotation 
				End Site
				{
					OFFSET 0.000000 -2.463878 4.653993
				}
			}
		}
	}
}
MOTION
Frames: 11
Frame Time: 0.049897
0.000000 43.528500 0.000000 0.000000 0.000000 0.000000 0.000000 0.000000 0.000000 0.000000 0.000000 0.000000 0.000000 0.000000 0.000000 0.000000 0.000000 0.000000 0.000000 0.000000 0.000000 0.000000 0.000000 0.000000 0.000000 0.000000 0.000000 0.000000 0.000000 0.000000 0.000000 0.000000 0.000000 0.000000 0.000000 0.000000 0.000000 0.000000 0.000000 0.000000 0.000000 0.000000 0.000000 0.000000 0.000000 0.000000 0.000000 0.000000 0.000000 0.000000 0.000000 0.000000 0.000000 0.000000 0.000000 0.000000 0.000000 0.000000 0.000000 0.000000 
0.000000 16.377707 0.000000 0.000000 0.000000 0.000000 -0.599808 -7.119222 -1.201352 0.736330 7.943660 -3.765433 -0.008743 0.033225 -0.000003 -0.044115 0.138004 -0.330529 -45.787865 -12.643806 -10.064616 -7.031564 -25.881845 1.263585 -18.223886 -27.138731 -18.238377 30.336269 -19.089989 -14.116840 -0.609109 -5.118771 -1.604320 -13.314580 14.537551 -4.557720 159.201813 -63.699486 1.727650 6.996825 0.000000 0.000000 -50.918823 6.423180 0.195378 145.947189 5.988170 -0.526132 41.686127 22.497490 -9.526107 -50.918858 -6.427857 -0.197037 145.946945 -5.985850 0.521767 41.686401 -22.502050 9.524162 
0.093411 16.335064 -0.018269 0.000000 0.000000 0.000000 -0.599807 -7.119223 -1.201352 0.736330 7.943660 -3.765433 -0.008743 0.033225 -0.000003 -0.061854 0.282220 -0.653072 -45.620174 -12.279777 -10.002944 -6.682508 -25.742552 1.163178 -20.036747 -26.246258 -19.777390 29.737593 -19.416126 -13.456584 -0.609109 -5.118771 -1.604320 -13.314580 14.537551 -4.557720 159.201813 -63.699486 1.727650 6.841193 0.317691 -0.043717 -50.945545 6.153471 0.687077 145.947189 5.988170 -0.526132 41.850712 22.950171 -9.884377 -51.053661 -6.689204 0.286020 145.946945 -5.985850 0.521767 41.599297 -22.051657 9.185785 
0.186823 16.292419 -0.036537 0.000000 0.000000 0.000000 -0.599807 -7.119222 -1.201352 0.736330 7.943660 -3.765433 -0.008743 0.033225 -0.000003 -0.080417 0.426417 -0.975847 -45.452869 -11.915055 -9.942360 -6.333941 -25.602634 1.063777 -21.813871 -25.308317 -21.277088 29.131918 -19.736652 -12.789398 -0.609109 -5.118771 -1.604320 -13.314579 14.537551 -4.557719 159.201813 -63.699471 1.727652 6.685222 0.635446 -0.088324 -50.974606 5.883605 1.179378 145.947189 5.988171 -0.526132 42.019169 23.402536 -10.245800 -51.190941 -6.949776 0.770636 145.946960 -5.985850 0.521767 41.515224 -21.600178 8.848743 
0.280234 16.249777 -0.054806 0.000000 0.000000 0.000000 -0.599807 -7.119223 -1.201352 0.736330 7.943660 -3.765433 -0.008743 0.033225 -0.000003 -0.099802 0.570585 -1.298853 -45.285957 -11.549658 -9.882861 -5.985865 -25.462095 0.965385 -23.553951 -24.326986 -22.736101 28.519314 -20.051407 -12.115333 -0.609109 -5.118771 -1.604320 -13.314580 14.537551 -4.557720 159.201813 -63.699486 1.727650 6.528903 0.953254 -0.133825 -51.006058 5.613617 1.672280 145.947189 5.988170 -0.526132 42.191566 23.854542 -10.610433 -51.330719 -7.209537 1.256814 145.946945 -5.985850 0.521767 41.434155 -21.147635 8.513000 
0.373646 16.207134 -0.073075 0.000000 0.000000 0.000000 -0.599808 -7.119222 -1.201352 0.736330 7.943659 -3.765433 -0.008743 0.033225 -0.000003 -0.120012 0.714718 -1.622088 -45.119411 -11.183595 -9.824445 -5.638287 -25.320953 0.868005 -25.255976 -23.304453 -24.153347 27.899803 -20.360191 -11.434430 -0.609109 -5.118771 -1.604320 -13.314580 14.537551 -4.557720 159.201797 -63.699478 1.727648 6.372232 1.271108 -0.180224 -51.039856 5.343539 2.165783 145.947189 5.988170 -0.526132 42.367970 24.306149 -10.978345 -51.472988 -7.468448 1.744551 145.946945 -5.985849 0.521767 41.356052 -20.694065 8.178519 
0.467057 16.164490 -0.091343 0.000000 0.000000 0.000000 -0.599808 -7.119222 -1.201352 0.736330 7.943660 -3.765433 -0.008743 0.033225 -0.000003 -0.141046 0.858809 -1.945550 -44.953232 -10.816875 -9.767108 -5.291205 -25.179207 0.771639 -26.919233 -22.242989 -25.528044 27.273474 -20.662846 -10.746759 -0.609109 -5.118771 -1.604320 -13.314580 14.537551 -4.557720 159.201813 -63.699486 1.727650 6.215201 1.588998 -0.227523 -51.076031 5.073405 2.659886 145.947189 5.988170 -0.526132 42.548435 24.757290 -11.349597 -51.617737 -7.726472 2.233848 145.946945 -5.985849 0.521767 41.280922 -20.239513 7.845271 
0.560469 16.121847 -0.109612 0.000000 0.000000 0.000000 -0.599808 -7.119222 -1.201352 0.736330 7.943660 -3.765433 -0.008743 0.033225 -0.000003 -0.162905 1.002848 -2.269237 -44.787407 -10.449512 -9.710852 -4.944628 -25.036867 0.676289 -28.543295 -21.144943 -26.859686 26.640368 -20.959175 -10.052382 -0.609109 -5.118771 -1.604320 -13.314580 14.537551 -4.557720 159.201813 -63.699486 1.727652 6.057802 1.906916 -0.275726 -51.114578 4.803248 3.154588 145.947189 5.988170 -0.526132 42.733028 25.207918 -11.724252 -51.764965 -7.983570 2.724701 145.946945 -5.985850 0.521767 41.208721 -19.784008 7.513216 
0.653880 16.079205 -0.127881 0.000000 0.000000 0.000000 -0.599808 -7.119222 -1.201352 0.736331 7.943660 -3.765433 -0.008743 0.033225 -0.000003 -0.185589 1.146830 -2.593147 -44.621937 -10.081518 -9.655669 -4.598555 -24.893944 0.581958 -30.127934 -20.012682 -28.147980 26.000587 -21.249025 -9.351381 -0.609109 -5.118771 -1.604320 -13.314580 14.537549 -4.557719 159.201813 -63.699486 1.727650 5.900027 2.224853 -0.324836 -51.155487 4.533102 3.649885 145.947189 5.988170 -0.526132 42.921799 25.657984 -12.102377 -51.914696 -8.239711 3.217111 145.946945 -5.985850 0.521767 41.139465 -19.327593 7.182326 
0.747292 16.036562 -0.146149 0.000000 0.000000 0.000000 -0.599807 -7.119223 -1.201352 0.736330 7.943660 -3.765433 -0.008743 0.033225 -0.000003 -0.209099 1.290747 -2.917279 -44.456795 -9.712898 -9.601558 -4.252991 -24.750444 0.488647 -31.673197 -18.848625 -29.392893 25.354197 -21.532196 -8.643836 -0.609109 -5.118771 -1.604320 -13.314580 14.537551 -4.557720 159.201813 -63.699493 1.727652 5.741871 2.542799 -0.374856 -51.198788 4.263003 4.145779 145.947205 5.988171 -0.526132 43.114834 26.107433 -12.484039 -52.066925 -8.494851 3.711075 145.946960 -5.985850 0.521767 41.073105 -18.870296 6.852564 
0.840703 15.993917 -0.164418 0.000000 0.000000 0.000000 -0.599807 -7.119222 -1.201352 0.736330 7.943660 -3.765434 -0.008743 0.033225 -0.000003 -0.233436 1.434591 -3.241630 -44.291981 -9.343672 -9.548517 -3.907939 -24.606382 0.396359 -33.179279 -17.655180 -30.594545 24.701302 -21.808529 -7.929843 -0.609109 -5.118771 -1.604320 -13.314581 14.537553 -4.557720 159.201813 -63.699493 1.727652 5.583326 2.860747 -0.425791 -51.244457 3.992983 4.642269 145.947189 5.988171 -0.526132 43.312176 26.556204 -12.869306 -52.221638 -8.748956 4.206591 145.946945 -5.985850 0.521767 41.009640 -18.412161 6.523897 
